<svg width="190" height="190" viewBox="0 0 190 190" fill="none" xmlns="http://www.w3.org/2000/svg">
<path d="M126 32C126 26.4772 130.477 22 136 22H180C185.523 22 190 26.4772 190 32C190 37.5228 185.523 42 180 42H136C130.477 42 126 37.5228 126 32Z" fill="url(#paint0_linear_54906_318)"/>
<path d="M22 54C22 59.5228 26.4772 64 32 64C37.5228 64 42 59.5228 42 54V42H54C59.5228 42 64 37.5228 64 32C64 26.4772 59.5228 22 54 22H42V10C42 4.47715 37.5228 0 32 0C26.4772 0 22 4.47715 22 10V22H10C4.47715 22 0 26.4772 0 32C0 37.5228 4.47715 42 10 42H22V54Z" fill="url(#paint1_linear_54906_318)"/>
<path d="M40.4869 180.628C44.3922 184.533 50.7238 184.533 54.6291 180.628C58.5343 176.722 58.5343 170.391 54.6291 166.485L46.1438 158L54.6291 149.515C58.5343 145.61 58.5343 139.278 54.6291 135.373C50.7238 131.468 44.3922 131.468 40.4869 135.373L32.0017 143.858L23.5164 135.373C19.6111 131.468 13.2795 131.468 9.37424 135.373C5.469 139.278 5.469 145.61 9.37424 149.515L17.8595 158L9.37425 166.485C5.469 170.391 5.469 176.722 9.37424 180.628C13.2795 184.533 19.6111 184.533 23.5164 180.628L32.0017 172.142L40.4869 180.628Z" fill="url(#paint2_linear_54906_318)"/>
<path d="M126 158C126 152.477 130.477 148 136 148H180C185.523 148 190 152.477 190 158C190 163.523 185.523 168 180 168H136C130.477 168 126 163.523 126 158Z" fill="url(#paint3_linear_54906_318)"/>
<path d="M170 136C170 141.523 165.523 146 160 146C154.477 146 150 141.523 150 136C150 130.477 154.477 126 160 126C165.523 126 170 130.477 170 136Z" fill="url(#paint4_linear_54906_318)"/>
<path d="M170 180C170 185.523 165.523 190 160 190C154.477 190 150 185.523 150 180C150 174.477 154.477 170 160 170C165.523 170 170 174.477 170 180Z" fill="url(#paint5_linear_54906_318)"/>
<path d="M42 41H41V42V54C41 58.9706 36.9706 63 32 63C27.0294 63 23 58.9706 23 54V42V41H22H10C5.02944 41 1 36.9706 1 32C1 27.0294 5.02944 23 10 23H22H23V22V10C23 5.02944 27.0294 1 32 1C36.9706 1 41 5.02944 41 10V22V23H42H54C58.9706 23 63 27.0294 63 32C63 36.9706 58.9706 41 54 41H42ZM45.4367 157.293L44.7296 158L45.4367 158.707L53.922 167.193C57.4367 170.707 57.4367 176.406 53.922 179.921C50.4073 183.435 44.7088 183.435 41.194 179.921L32.7088 171.435L32.0017 170.728L31.2946 171.435L22.8093 179.921C19.2946 183.435 13.5961 183.435 10.0814 179.921C6.56663 176.406 6.56663 170.707 10.0814 167.193L18.5666 158.707L19.2737 158L18.5666 157.293L10.0814 148.808C6.56663 145.293 6.56663 139.595 10.0814 136.08C13.5961 132.565 19.2946 132.565 22.8093 136.08L31.2946 144.565L32.0017 145.272L32.7088 144.565L41.194 136.08C44.7088 132.565 50.4073 132.565 53.922 136.08C57.4367 139.595 57.4367 145.293 53.922 148.808L45.4367 157.293ZM136 23H180C184.971 23 189 27.0294 189 32C189 36.9706 184.971 41 180 41H136C131.029 41 127 36.9706 127 32C127 27.0294 131.029 23 136 23ZM136 149H180C184.971 149 189 153.029 189 158C189 162.971 184.971 167 180 167H136C131.029 167 127 162.971 127 158C127 153.029 131.029 149 136 149ZM169 136C169 140.971 164.971 145 160 145C155.029 145 151 140.971 151 136C151 131.029 155.029 127 160 127C164.971 127 169 131.029 169 136ZM169 180C169 184.971 164.971 189 160 189C155.029 189 151 184.971 151 180C151 175.029 155.029 171 160 171C164.971 171 169 175.029 169 180Z" stroke="white" stroke-width="2"/>
<defs>
<linearGradient id="paint0_linear_54906_318" x1="0" y1="0" x2="196.538" y2="7.02234" gradientUnits="userSpaceOnUse">
<stop stop-color="white" stop-opacity="0.6"/>
<stop offset="1" stop-color="white" stop-opacity="0.2"/>
</linearGradient>
<linearGradient id="paint1_linear_54906_318" x1="2.22824e-05" y1="399" x2="71.0715" y2="-222.598" gradientUnits="userSpaceOnUse">
<stop stop-color="white" stop-opacity="0.6"/>
<stop offset="1" stop-color="white" stop-opacity="0.2"/>
</linearGradient>
<linearGradient id="paint2_linear_54906_318" x1="280.044" y1="448.271" x2="-207.388" y2="-165.014" gradientUnits="userSpaceOnUse">
<stop stop-color="white" stop-opacity="0.6"/>
<stop offset="1" stop-color="white" stop-opacity="0.2"/>
</linearGradient>
<linearGradient id="paint3_linear_54906_318" x1="126" y1="126" x2="192.202" y2="128.365" gradientUnits="userSpaceOnUse">
<stop stop-color="#FFFEFE" stop-opacity="0.6"/>
<stop offset="1" stop-color="#FFFAFA" stop-opacity="0.2"/>
</linearGradient>
<linearGradient id="paint4_linear_54906_318" x1="126" y1="126" x2="192.202" y2="128.365" gradientUnits="userSpaceOnUse">
<stop stop-color="#FFFEFE" stop-opacity="0.6"/>
<stop offset="1" stop-color="#FFFAFA" stop-opacity="0.2"/>
</linearGradient>
<linearGradient id="paint5_linear_54906_318" x1="126" y1="126" x2="192.202" y2="128.365" gradientUnits="userSpaceOnUse">
<stop stop-color="#FFFEFE" stop-opacity="0.6"/>
<stop offset="1" stop-color="#FFFAFA" stop-opacity="0.2"/>
</linearGradient>
</defs>
</svg>
