<svg width="56" height="56" viewBox="0 0 56 56" fill="none" xmlns="http://www.w3.org/2000/svg">
<path d="M24.1361 28.2005L20.6361 27.3437L22.0762 14H36.3861V17.7187H25.722L24.9929 24.2265C25.406 23.9835 25.9772 23.7466 26.7064 23.5156C27.4355 23.2726 28.2681 23.1511 29.2037 23.1511C30.4554 23.1511 31.5736 23.3576 32.5579 23.7708C33.5545 24.1719 34.3991 24.7613 35.0918 25.539C35.7844 26.3047 36.3132 27.2405 36.6777 28.3464C37.0423 29.4401 37.2246 30.6736 37.2246 32.0469C37.2246 33.2743 37.0423 34.4227 36.6777 35.4922C36.3253 36.5616 35.7906 37.5034 35.0736 38.3178C34.3565 39.132 33.4511 39.7699 32.3575 40.2318C31.2758 40.6814 29.9937 40.9062 28.5111 40.9062C27.4052 40.9062 26.3418 40.7483 25.3209 40.4322C24.3122 40.1042 23.4069 39.6241 22.6048 38.9922C21.8027 38.3481 21.1586 37.5581 20.6725 36.6224C20.1864 35.6744 19.9069 34.5868 19.834 33.3594H24.1361C24.2454 34.2222 24.4825 34.9574 24.847 35.5651C25.2238 36.1606 25.722 36.6163 26.3418 36.9322C26.9616 37.2483 27.6787 37.4062 28.4929 37.4062C29.2342 37.4062 29.8722 37.2786 30.4069 37.0235C30.9416 36.7561 31.3852 36.3793 31.7376 35.8932C32.1022 35.3949 32.3696 34.8116 32.5397 34.1432C32.7219 33.4748 32.8132 32.7335 32.8132 31.9193C32.8132 31.1415 32.7098 30.4305 32.5033 29.7864C32.3088 29.1424 32.0111 28.5833 31.61 28.1094C31.2211 27.6354 30.7289 27.2708 30.1334 27.0156C29.538 26.7483 28.8514 26.6146 28.0736 26.6146C27.0285 26.6146 26.2264 26.7665 25.6673 27.0703C25.1204 27.3741 24.61 27.7509 24.1361 28.2005Z" fill="#F7FCFF"/>
</svg>
