<svg width="56" height="56" viewBox="0 0 56 56" fill="none" xmlns="http://www.w3.org/2000/svg">
<path d="M37.3157 33.6693C37.3157 35.322 36.9329 36.7135 36.1673 37.8438C35.4016 38.974 34.3565 39.8307 33.0319 40.414C31.7194 40.9852 30.2368 41.2708 28.584 41.2708C26.9312 41.2708 25.4425 40.9852 24.1179 40.414C22.7932 39.8307 21.748 38.974 20.9825 37.8438C20.2168 36.7135 19.834 35.322 19.834 33.6693C19.834 32.5756 20.0467 31.5851 20.472 30.6979C20.8974 29.7987 21.4989 29.0269 22.2766 28.3828C23.0666 27.7265 23.9902 27.2222 25.0475 26.8699C26.117 26.5174 27.2836 26.3411 28.5475 26.3411C30.2246 26.3411 31.7255 26.651 33.0501 27.2708C34.3747 27.8907 35.4138 28.7474 36.1673 29.8411C36.9329 30.9349 37.3157 32.211 37.3157 33.6693ZM32.9043 33.4506C32.9043 32.5634 32.722 31.7856 32.3573 31.1172C31.9929 30.4488 31.4823 29.9324 30.8262 29.5677C30.17 29.2032 29.4103 29.0208 28.5475 29.0208C27.6725 29.0208 26.913 29.2032 26.2689 29.5677C25.6247 29.9324 25.1204 30.4488 24.7558 31.1172C24.4035 31.7856 24.2272 32.5634 24.2272 33.4506C24.2272 34.3498 24.4035 35.1276 24.7558 35.7839C25.1083 36.428 25.6126 36.9201 26.2689 37.2604C26.9251 37.6007 27.6969 37.7708 28.584 37.7708C29.4711 37.7708 30.2368 37.6007 30.8808 37.2604C31.5249 36.9201 32.0232 36.428 32.3757 35.7839C32.7281 35.1276 32.9043 34.3498 32.9043 33.4506ZM36.7141 21.3464C36.7141 22.671 36.3617 23.8498 35.6569 24.8828C34.9641 25.9158 34.0041 26.7301 32.7766 27.3256C31.5492 27.9089 30.1516 28.2006 28.584 28.2006C27.0041 28.2006 25.5944 27.9089 24.3548 27.3256C23.1274 26.7301 22.1613 25.9158 21.4564 24.8828C20.7637 23.8498 20.4173 22.671 20.4173 21.3464C20.4173 19.7665 20.7637 18.4358 21.4564 17.3542C22.1613 16.2604 23.1274 15.428 24.3548 14.8568C25.5823 14.2856 26.9859 14 28.5658 14C30.1456 14 31.5492 14.2856 32.7766 14.8568C34.0041 15.428 34.9641 16.2604 35.6569 17.3542C36.3617 18.4358 36.7141 19.7665 36.7141 21.3464ZM32.3209 21.4922C32.3209 20.7023 32.163 20.0095 31.847 19.414C31.5431 18.8064 31.1117 18.3324 30.5527 17.9922C29.9937 17.6519 29.3314 17.4818 28.5658 17.4818C27.8001 17.4818 27.1378 17.6458 26.5787 17.9739C26.0198 18.3021 25.5883 18.7638 25.2845 19.3594C24.9807 19.9549 24.8287 20.6658 24.8287 21.4922C24.8287 22.3064 24.9807 23.0174 25.2845 23.625C25.5883 24.2205 26.0198 24.6884 26.5787 25.0286C27.1499 25.3689 27.8183 25.539 28.584 25.539C29.3496 25.539 30.012 25.3689 30.5709 25.0286C31.13 24.6884 31.5614 24.2205 31.8652 23.625C32.169 23.0174 32.3209 22.3064 32.3209 21.4922Z" fill="#F7FCFF"/>
</svg>
