<svg width="56" height="56" viewBox="0 0 56 56" fill="none" xmlns="http://www.w3.org/2000/svg">
<path d="M2.33398 38.7188C2.33398 38.0382 2.56489 37.467 3.02669 37.0052C3.48849 36.5313 4.11436 36.2943 4.9043 36.2943C5.70639 36.2943 6.33224 36.5313 6.7819 37.0052C7.2437 37.467 7.47461 38.0382 7.47461 38.7188C7.47461 39.3993 7.2437 39.9705 6.7819 40.4324C6.33224 40.8941 5.70639 41.125 4.9043 41.125C4.11436 41.125 3.48849 40.8941 3.02669 40.4324C2.56489 39.9705 2.33398 39.3993 2.33398 38.7188ZM30.3244 25.4115V29.75C30.3244 31.8282 30.1178 33.6025 29.7047 35.0729C29.3036 36.5313 28.7203 37.7161 27.9547 38.6276C27.189 39.539 26.2715 40.2074 25.2021 40.6328C24.1447 41.0581 22.9598 41.2708 21.6473 41.2708C20.6022 41.2708 19.6301 41.1371 18.7307 40.8699C17.8435 40.6025 17.0415 40.1831 16.3244 39.6119C15.6074 39.0407 14.9937 38.3055 14.4833 37.4063C13.985 36.4949 13.5962 35.4072 13.3166 34.1432C13.0494 32.8794 12.9157 31.415 12.9157 29.75V25.4115C12.9157 23.3212 13.1223 21.5591 13.5354 20.125C13.9486 18.6788 14.538 17.5061 15.3036 16.6068C16.0693 15.6953 16.9808 15.033 18.0381 14.6197C19.1075 14.2066 20.2984 14 21.6109 14C22.6682 14 23.6405 14.1337 24.5276 14.4011C25.4269 14.6562 26.229 15.0634 26.9339 15.6224C27.6509 16.1814 28.2585 16.9106 28.7568 17.8099C29.2672 18.697 29.656 19.7726 29.9234 21.0364C30.1907 22.2882 30.3244 23.7466 30.3244 25.4115ZM25.9312 30.3699V24.7552C25.9312 23.6979 25.8705 22.7682 25.749 21.9661C25.6275 21.1519 25.4451 20.4653 25.2021 19.9063C24.9712 19.3351 24.6795 18.8733 24.3271 18.5208C23.9746 18.1563 23.5737 17.8949 23.124 17.737C22.6743 17.5669 22.1699 17.4818 21.6109 17.4818C20.9303 17.4818 20.3228 17.6155 19.7881 17.8828C19.2533 18.1381 18.8036 18.5512 18.439 19.1224C18.0744 19.6936 17.795 20.447 17.6006 21.3828C17.4183 22.3064 17.3271 23.4305 17.3271 24.7552V30.3699C17.3271 31.4392 17.388 32.3811 17.5094 33.1953C17.631 34.0095 17.8132 34.7083 18.0562 35.2917C18.2992 35.8629 18.5909 36.3368 18.9312 36.7135C19.2837 37.0782 19.6848 37.3455 20.1344 37.5157C20.5963 37.6858 21.1005 37.7708 21.6473 37.7708C22.3401 37.7708 22.9539 37.6371 23.4886 37.3699C24.0234 37.1025 24.4729 36.6771 24.8375 36.0938C25.2021 35.4983 25.4755 34.7265 25.6578 33.7786C25.8401 32.8307 25.9312 31.6945 25.9312 30.3699ZM52.6458 25.4115V29.75C52.6458 31.8282 52.4392 33.6025 52.0261 35.0729C51.625 36.5313 51.0416 37.7161 50.2761 38.6276C49.5104 39.539 48.5928 40.2074 47.5233 40.6328C46.4659 41.0581 45.2812 41.2708 43.9687 41.2708C42.9236 41.2708 41.9514 41.1371 41.052 40.8699C40.1649 40.6025 39.3627 40.1831 38.6457 39.6119C37.9286 39.0407 37.315 38.3055 36.8045 37.4063C36.3063 36.4949 35.9174 35.4072 35.6379 34.1432C35.3705 32.8794 35.2368 31.415 35.2368 29.75V25.4115C35.2368 23.3212 35.4434 21.5591 35.8566 20.125C36.2699 18.6788 36.8593 17.5061 37.6248 16.6068C38.3905 15.6953 39.302 15.033 40.3594 14.6197C41.4288 14.2066 42.6198 14 43.9323 14C44.9895 14 45.9618 14.1337 46.849 14.4011C47.7482 14.6562 48.5503 15.0634 49.2552 15.6224C49.9723 16.1814 50.5799 16.9106 51.0781 17.8099C51.5886 18.697 51.9774 19.7726 52.2448 21.0364C52.5121 22.2882 52.6458 23.7466 52.6458 25.4115ZM48.2525 30.3699V24.7552C48.2525 23.6979 48.1917 22.7682 48.0701 21.9661C47.9487 21.1519 47.7663 20.4653 47.5233 19.9063C47.2924 19.3351 47.0007 18.8733 46.6483 18.5208C46.2958 18.1563 45.8949 17.8949 45.4451 17.737C44.9955 17.5669 44.4913 17.4818 43.9323 17.4818C43.2517 17.4818 42.6441 17.6155 42.1094 17.8828C41.5746 18.1381 41.125 18.5512 40.7604 19.1224C40.3958 19.6936 40.1163 20.447 39.9219 21.3828C39.7395 22.3064 39.6483 23.4305 39.6483 24.7552V30.3699C39.6483 31.4392 39.7091 32.3811 39.8305 33.1953C39.9521 34.0095 40.1344 34.7083 40.3775 35.2917C40.6205 35.8629 40.9121 36.3368 41.2525 36.7135C41.6049 37.0782 42.0059 37.3455 42.4555 37.5157C42.9174 37.6858 43.4219 37.7708 43.9687 37.7708C44.6615 37.7708 45.275 37.6371 45.8097 37.3699C46.3445 37.1025 46.7941 36.6771 47.1587 36.0938C47.5233 35.4983 47.7969 34.7265 47.9791 33.7786C48.1615 32.8307 48.2525 31.6945 48.2525 30.3699Z" fill="#F7FCFF"/>
</svg>
