<svg width="56" height="56" viewBox="0 0 56 56" fill="none" xmlns="http://www.w3.org/2000/svg">
<path d="M11.2109 40.8335H5.54167L5.57812 37.2059H11.2109C12.8515 37.2059 14.2248 36.8473 15.3307 36.1304C16.4488 35.4134 17.2873 34.3865 17.8464 33.0496C18.4176 31.7128 18.7032 30.1208 18.7032 28.2736V26.8335C18.7032 25.3994 18.539 24.1295 18.211 23.0236C17.8949 21.9177 17.421 20.988 16.789 20.2346C16.1693 19.481 15.4036 18.9098 14.4922 18.521C13.5928 18.1321 12.5538 17.9377 11.375 17.9377H5.43229V14.2918H11.375C13.1371 14.2918 14.7474 14.5896 16.2057 15.185C17.664 15.7684 18.9218 16.613 19.9792 17.7189C21.0486 18.8248 21.8689 20.1494 22.4401 21.6929C23.0113 23.2363 23.2968 24.9619 23.2968 26.8699V28.2736C23.2968 30.1816 23.0113 31.9073 22.4401 33.4507C21.8689 34.9941 21.0486 36.3187 19.9792 37.4246C18.9097 38.5184 17.6337 39.363 16.151 39.9585C14.6805 40.5418 13.0339 40.8335 11.2109 40.8335ZM8.07553 14.2918V40.8335H3.5V14.2918H8.07553ZM36.5218 41.1981C35.0635 41.1981 33.7449 40.9611 32.566 40.4871C31.3993 40.0011 30.4029 39.3265 29.5764 38.4638C28.7622 37.6009 28.1364 36.5861 27.6989 35.4195C27.2614 34.2528 27.0426 32.9949 27.0426 31.646V30.9168C27.0426 29.3734 27.2674 27.9759 27.7171 26.7241C28.1667 25.4723 28.7926 24.403 29.5947 23.5157C30.3968 22.6165 31.3447 21.9299 32.4385 21.4559C33.5322 20.982 34.7171 20.7449 35.9931 20.7449C37.4029 20.7449 38.6364 20.982 39.6936 21.4559C40.751 21.9299 41.626 22.5983 42.3186 23.4611C43.0235 24.3117 43.5461 25.3265 43.8864 26.5054C44.2388 27.6842 44.415 28.9846 44.415 30.4064V32.284H29.1754V29.1304H40.0764V28.784C40.0521 27.9941 39.8942 27.2528 39.6025 26.56C39.323 25.8674 38.8915 25.3083 38.3082 24.8829C37.7249 24.4576 36.9472 24.2449 35.9749 24.2449C35.2457 24.2449 34.5955 24.403 34.0243 24.7189C33.4654 25.0227 32.9974 25.4663 32.6207 26.0496C32.244 26.6329 31.9523 27.3378 31.7457 28.1642C31.5513 28.9784 31.454 29.896 31.454 30.9168V31.646C31.454 32.5089 31.5695 33.3109 31.8004 34.0522C32.0434 34.7814 32.3959 35.4195 32.8576 35.9663C33.3195 36.5132 33.8785 36.9446 34.5347 37.2606C35.191 37.5644 35.9385 37.7163 36.7769 37.7163C37.8343 37.7163 38.7761 37.5036 39.6025 37.0782C40.4288 36.653 41.1459 36.0513 41.7535 35.2736L44.0686 37.5157C43.6433 38.1356 43.0904 38.731 42.4097 39.3022C41.7292 39.8613 40.8968 40.317 39.9124 40.6695C38.9402 41.0219 37.8099 41.1981 36.5218 41.1981ZM52.9185 12.8335V40.8335H48.5071V12.8335H52.9185Z" fill="#F7FCFF"/>
</svg>
