<svg width="56" height="56" viewBox="0 0 56 56" fill="none" xmlns="http://www.w3.org/2000/svg">
<path d="M24.4082 25.6485H27.0332C28.0541 25.6485 28.8986 25.4722 29.5671 25.1199C30.2475 24.7674 30.7519 24.2813 31.08 23.6614C31.4081 23.0417 31.5723 22.3307 31.5723 21.5286C31.5723 20.6901 31.4204 19.9731 31.1166 19.3776C30.8249 18.7699 30.3751 18.3021 29.7675 17.9739C29.1721 17.6458 28.4126 17.4818 27.4889 17.4818C26.7111 17.4818 26.0063 17.6398 25.3743 17.9557C24.7546 18.2595 24.2624 18.697 23.8978 19.2682C23.5332 19.8273 23.3509 20.4957 23.3509 21.2735H18.9395C18.9395 19.8637 19.3101 18.612 20.0514 17.5182C20.7927 16.4245 21.8014 15.5678 23.0774 14.9479C24.3656 14.3159 25.8118 14 27.416 14C29.1296 14 30.6243 14.2856 31.9004 14.8568C33.1887 15.4157 34.1912 16.2544 34.9082 17.3724C35.6253 18.4905 35.9838 19.8759 35.9838 21.5286C35.9838 22.2822 35.8075 23.0477 35.455 23.8256C35.1026 24.6033 34.5802 25.3142 33.8874 25.9583C33.1947 26.5903 32.3318 27.1068 31.2988 27.5078C30.2658 27.8968 29.0688 28.0911 27.7077 28.0911H24.4082V25.6485ZM24.4082 29.0756V26.6693H27.7077C29.2632 26.6693 30.5879 26.8515 31.6816 27.2161C32.7875 27.5807 33.687 28.0851 34.3796 28.7292C35.0721 29.3612 35.5765 30.0843 35.8925 30.8985C36.2206 31.7127 36.3848 32.5756 36.3848 33.487C36.3848 34.7265 36.1599 35.8324 35.7103 36.8047C35.2728 37.7648 34.6469 38.579 33.8327 39.2474C33.0183 39.9157 32.0645 40.4201 30.9707 40.7604C29.8891 41.1007 28.7103 41.2708 27.4342 41.2708C26.2919 41.2708 25.1982 41.1129 24.153 40.7968C23.1079 40.4809 22.1721 40.013 21.3457 39.3932C20.5193 38.7613 19.863 37.9775 19.377 37.0417C18.903 36.0938 18.666 35 18.666 33.7604H23.0592C23.0592 34.5504 23.2416 35.2491 23.6061 35.8568C23.9829 36.4523 24.5054 36.9201 25.1738 37.2604C25.8544 37.6007 26.6321 37.7708 27.5071 37.7708C28.4308 37.7708 29.2268 37.6068 29.8952 37.2786C30.5637 36.9506 31.0741 36.4644 31.4264 35.8203C31.7911 35.1762 31.9732 34.3985 31.9732 33.487C31.9732 32.454 31.7727 31.6155 31.3717 30.9714C30.9706 30.3273 30.3995 29.8533 29.6582 29.5495C28.9169 29.2335 28.0419 29.0756 27.0332 29.0756H24.4082Z" fill="#F7FCFF"/>
</svg>
