<svg width="56" height="56" viewBox="0 0 56 56" fill="none" xmlns="http://www.w3.org/2000/svg">
<path d="M16.334 20.8906V19.487C16.334 18.4783 16.5527 17.5608 16.9902 16.7343C17.4277 15.908 18.0658 15.2457 18.9043 14.7474C19.7429 14.2491 20.7516 14 21.9304 14C23.1456 14 24.1664 14.2491 24.9929 14.7474C25.8314 15.2457 26.4694 15.908 26.9069 16.7343C27.3444 17.5608 27.5632 18.4783 27.5632 19.487V20.8906C27.5632 21.875 27.3444 22.7803 26.9069 23.6068C26.4815 24.4331 25.8496 25.0955 25.0111 25.5937C24.1847 26.092 23.17 26.3411 21.9668 26.3411C20.7758 26.3411 19.755 26.092 18.9043 25.5937C18.0658 25.0955 17.4277 24.4331 16.9902 23.6068C16.5527 22.7803 16.334 21.875 16.334 20.8906ZM19.3783 19.487V20.8906C19.3783 21.3767 19.4694 21.8385 19.6518 22.276C19.8461 22.7135 20.1378 23.0659 20.5268 23.3333C20.9156 23.6007 21.3956 23.7343 21.9668 23.7343C22.5501 23.7343 23.0241 23.6007 23.3887 23.3333C23.7654 23.0659 24.045 22.7135 24.2272 22.276C24.4095 21.8385 24.5007 21.3767 24.5007 20.8906V19.487C24.5007 18.9887 24.4035 18.5208 24.209 18.0833C24.0268 17.6337 23.7472 17.2752 23.3704 17.0078C22.9937 16.7405 22.5137 16.6068 21.9304 16.6068C21.3713 16.6068 20.8974 16.7405 20.5084 17.0078C20.1317 17.2752 19.8461 17.6337 19.6518 18.0833C19.4694 18.5208 19.3783 18.9887 19.3783 19.487ZM29.1308 35.8385V34.4167C29.1308 33.4201 29.3497 32.5087 29.7872 31.6822C30.2368 30.8559 30.8808 30.1936 31.7194 29.6953C32.558 29.197 33.5666 28.9479 34.7455 28.9479C35.9607 28.9479 36.9815 29.197 37.808 29.6953C38.6465 30.1936 39.2785 30.8559 39.7038 31.6822C40.1413 32.5087 40.36 33.4201 40.36 34.4167V35.8385C40.36 36.835 40.1413 37.7464 39.7038 38.5729C39.2785 39.3993 38.6526 40.0616 37.8262 40.5599C36.9997 41.0581 35.9912 41.3072 34.8001 41.3072C33.597 41.3072 32.5701 41.0581 31.7194 40.5599C30.8808 40.0616 30.2368 39.3993 29.7872 38.5729C29.3497 37.7464 29.1308 36.835 29.1308 35.8385ZM32.1933 34.4167V35.8385C32.1933 36.3246 32.2906 36.7864 32.485 37.2239C32.6916 37.6614 32.9893 38.0199 33.3783 38.2994C33.7671 38.5668 34.235 38.7006 34.7819 38.7006C35.4016 38.7006 35.8999 38.5668 36.2766 38.2994C36.6535 38.0199 36.9207 37.6675 37.0788 37.2422C37.2489 36.8047 37.334 36.3368 37.334 35.8385V34.4167C37.334 33.9184 37.2368 33.4505 37.0423 33.013C36.86 32.5755 36.5745 32.2231 36.1855 31.9557C35.8088 31.6883 35.3288 31.5547 34.7455 31.5547C34.1743 31.5547 33.7003 31.6883 33.3236 31.9557C32.9469 32.2231 32.6613 32.5755 32.4668 33.013C32.2845 33.4505 32.1933 33.9184 32.1933 34.4167ZM35.8391 18.1745L22.8783 38.9192L20.6361 37.625L33.597 16.8802L35.8391 18.1745Z" fill="#F7FCFF"/>
</svg>
