<svg width="56" height="56" viewBox="0 0 56 56" fill="none" xmlns="http://www.w3.org/2000/svg">
<path d="M23.6804 37.4427H24.045C25.722 37.4427 27.1196 37.224 28.2376 36.7865C29.3679 36.3368 30.2671 35.717 30.9355 34.9271C31.604 34.1371 32.084 33.2074 32.3757 32.1381C32.6673 31.0686 32.8132 29.908 32.8132 28.6563V24.0807C32.8132 22.9991 32.6978 22.0512 32.4668 21.237C32.2481 20.4106 31.9321 19.7239 31.519 19.1771C31.1179 18.618 30.6499 18.1988 30.1152 17.9193C29.5927 17.6398 29.0276 17.5 28.42 17.5C27.7516 17.5 27.1499 17.6519 26.6152 17.9557C26.0927 18.2474 25.6491 18.6545 25.2845 19.1771C24.9321 19.6875 24.6586 20.289 24.4643 20.9818C24.2819 21.6623 24.1908 22.3915 24.1908 23.1693C24.1908 23.8985 24.2758 24.6033 24.4459 25.2839C24.6283 25.9523 24.8956 26.5477 25.248 27.0703C25.6005 27.5928 26.044 28.0061 26.5788 28.3099C27.1135 28.6137 27.7393 28.7657 28.4564 28.7657C29.137 28.7657 29.7628 28.6381 30.334 28.3828C30.9052 28.1155 31.4035 27.757 31.8288 27.3074C32.2542 26.8576 32.5883 26.3533 32.8315 25.7943C33.0745 25.2352 33.2082 24.664 33.2325 24.0807L34.9095 24.5911C34.9095 25.5148 34.7151 26.4262 34.3262 27.3256C33.9495 28.2127 33.4209 29.0269 32.7402 29.7682C32.0719 30.4974 31.288 31.0807 30.3887 31.5182C29.5016 31.9557 28.5353 32.1745 27.4902 32.1745C26.2264 32.1745 25.1083 31.9375 24.1361 31.4635C23.176 30.9775 22.3739 30.3212 21.7298 29.4949C21.0978 28.6684 20.6239 27.7205 20.3079 26.651C19.992 25.5816 19.834 24.4574 19.834 23.2786C19.834 22.0026 20.0285 20.8055 20.4173 19.6875C20.8062 18.5695 21.3713 17.585 22.1126 16.7344C22.8539 15.8716 23.7533 15.2031 24.8105 14.7292C25.88 14.243 27.0893 14 28.4382 14C29.8722 14 31.13 14.2795 32.2116 14.8386C33.2932 15.3975 34.2046 16.1693 34.9459 17.1536C35.6874 18.1381 36.2463 19.2803 36.6231 20.5807C36.9998 21.8811 37.1882 23.2786 37.1882 24.7735V26.3229C37.1882 27.8907 37.0484 29.4036 36.769 30.862C36.4894 32.3082 36.0336 33.651 35.4018 34.8907C34.7819 36.118 33.9616 37.1996 32.9408 38.1354C31.9321 39.0591 30.6925 39.7822 29.222 40.3047C27.7637 40.8151 26.0501 41.0703 24.0814 41.0703H23.6804V37.4427Z" fill="#F7FCFF"/>
</svg>
