<svg width="56" height="56" viewBox="0 0 56 56" fill="none" xmlns="http://www.w3.org/2000/svg">
<path d="M17.39 17.8282L9.46029 40.8335H4.66602L14.6556 14.2918H17.7181L17.39 17.8282ZM24.0254 40.8335L16.0775 17.8282L15.7311 14.2918H18.8118L28.838 40.8335H24.0254ZM23.6426 30.9897V34.6174H9.20507V30.9897H23.6426ZM47.568 32.1929H52.1253C51.9795 33.9307 51.4933 35.4802 50.667 36.8413C49.8406 38.1903 48.68 39.2536 47.1852 40.0314C45.6905 40.8092 43.8736 41.1981 41.7346 41.1981C40.0941 41.1981 38.6175 40.9064 37.305 40.3231C35.9925 39.7276 34.8683 38.889 33.9326 37.8074C32.9969 36.7138 32.2799 35.3951 31.7816 33.8517C31.2954 32.3083 31.0524 30.5826 31.0524 28.6746V26.4689C31.0524 24.5609 31.3015 22.8352 31.7998 21.2918C32.3102 19.7484 33.0394 18.4299 33.9873 17.3361C34.9352 16.2302 36.0715 15.3856 37.3962 14.8022C38.7329 14.2189 40.2338 13.9272 41.8988 13.9272C44.0134 13.9272 45.7998 14.3161 47.2581 15.0939C48.7164 15.8717 49.8467 16.9472 50.6488 18.3204C51.463 19.6937 51.9613 21.2676 52.1435 23.0418H47.5863C47.4647 21.8994 47.1973 20.9212 46.7842 20.107C46.3831 19.2927 45.7876 18.6729 44.9977 18.2475C44.2077 17.81 43.1748 17.5913 41.8988 17.5913C40.8536 17.5913 39.9422 17.7858 39.1644 18.1746C38.3867 18.5636 37.7365 19.1347 37.2138 19.8882C36.6913 20.6416 36.2963 21.5714 36.0289 22.6772C35.7738 23.771 35.6462 25.0227 35.6462 26.4324V28.6746C35.6462 30.0115 35.7617 31.2267 35.9925 32.3204C36.2356 33.4021 36.6001 34.3318 37.0863 35.1096C37.5846 35.8873 38.2164 36.4888 38.9821 36.9142C39.7477 37.3396 40.6653 37.5522 41.7346 37.5522C43.035 37.5522 44.0863 37.3456 44.8884 36.9324C45.7026 36.5193 46.3163 35.9177 46.7295 35.1278C47.1549 34.3257 47.4344 33.3473 47.568 32.1929Z" fill="#F7FCFF"/>
</svg>
