<svg width="56" height="56" viewBox="0 0 56 56" fill="none" xmlns="http://www.w3.org/2000/svg">
<path d="M31.8456 14H32.3926V17.5911H32.0827C30.5149 17.5911 29.1599 17.8343 28.0175 18.3203C26.8874 18.8064 25.9577 19.4748 25.2285 20.3256C24.4993 21.1762 23.9524 22.1727 23.5878 23.3151C23.2355 24.4453 23.0592 25.6485 23.0592 26.9245V31.0989C23.0592 32.1563 23.1747 33.092 23.4056 33.9063C23.6365 34.7083 23.9586 35.3828 24.3717 35.9296C24.7971 36.4644 25.2832 36.8715 25.83 37.151C26.377 37.4305 26.9664 37.5703 27.5983 37.5703C28.2545 37.5703 28.8501 37.4366 29.3848 37.1693C29.9194 36.8898 30.3751 36.5069 30.752 36.0208C31.1287 35.5347 31.4143 34.9574 31.6087 34.289C31.8032 33.6207 31.9003 32.8915 31.9003 32.1015C31.9003 31.3481 31.8032 30.6432 31.6087 29.987C31.4264 29.3186 31.153 28.7352 30.7884 28.237C30.4238 27.7265 29.9681 27.3316 29.4212 27.0521C28.8865 26.7604 28.2667 26.6146 27.5618 26.6146C26.6868 26.6146 25.8908 26.8212 25.1738 27.2343C24.469 27.6476 23.8978 28.1883 23.4603 28.8568C23.0349 29.5129 22.8041 30.2118 22.7675 30.9531L21.0905 30.4063C21.1878 29.276 21.4368 28.2612 21.8378 27.362C22.2511 26.4627 22.7919 25.697 23.4603 25.0651C24.1287 24.4332 24.9003 23.9531 25.7753 23.625C26.6626 23.2847 27.6348 23.1146 28.692 23.1146C29.9802 23.1146 31.0983 23.3576 32.0462 23.8438C32.9941 24.3299 33.778 24.9922 34.3978 25.8307C35.0297 26.6571 35.4976 27.605 35.8014 28.6745C36.1174 29.7318 36.2753 30.8377 36.2753 31.9921C36.2753 33.2682 36.081 34.4591 35.692 35.5651C35.3032 36.6588 34.732 37.6189 33.9785 38.4453C33.2372 39.2716 32.3318 39.9158 31.2623 40.3776C30.2051 40.8394 29.002 41.0703 27.653 41.0703C26.2311 41.0703 24.9611 40.7968 23.8431 40.25C22.7372 39.7031 21.7954 38.9496 21.0175 37.9896C20.252 37.0295 19.6686 35.9235 19.2675 34.6718C18.8666 33.4201 18.666 32.0955 18.666 30.6979V28.875C18.666 26.8576 18.9213 24.9557 19.4316 23.1693C19.942 21.3707 20.7259 19.7847 21.7832 18.4114C22.8526 17.0382 24.2198 15.9627 25.8848 15.1849C27.5497 14.3949 29.5367 14 31.8456 14Z" fill="#F7FCFF"/>
</svg>
