<svg width="56" height="56" viewBox="0 0 56 56" fill="none" xmlns="http://www.w3.org/2000/svg">
<path d="M37.2429 25.4115V29.75C37.2429 31.8282 37.0363 33.6025 36.623 35.0729C36.222 36.5313 35.6387 37.7161 34.873 38.6276C34.1075 39.539 33.1899 40.2074 32.1205 40.6328C31.0632 41.0581 29.8783 41.2708 28.5658 41.2708C27.5206 41.2708 26.5484 41.1371 25.6491 40.8699C24.762 40.6025 23.9599 40.1831 23.2429 39.6119C22.5258 39.0407 21.9121 38.3055 21.4018 37.4063C20.9035 36.4949 20.5145 35.4072 20.2351 34.1432C19.9677 32.8794 19.834 31.415 19.834 29.75V25.4115C19.834 23.3212 20.0406 21.5591 20.4537 20.125C20.867 18.6788 21.4564 17.5061 22.222 16.6068C22.9876 15.6953 23.8991 15.033 24.9564 14.6197C26.0258 14.2066 27.2168 14 28.5293 14C29.5866 14 30.5588 14.1337 31.4459 14.4011C32.3453 14.6562 33.1474 15.0634 33.8522 15.6224C34.5692 16.1814 35.1768 16.9106 35.6751 17.8099C36.1855 18.697 36.5745 19.7726 36.8418 21.0364C37.1092 22.2882 37.2429 23.7466 37.2429 25.4115ZM32.8497 30.3699V24.7552C32.8497 23.6979 32.7889 22.7682 32.6673 21.9661C32.5458 21.1519 32.3635 20.4653 32.1205 19.9063C31.8895 19.3351 31.5978 18.8733 31.2455 18.5208C30.8931 18.1563 30.492 17.8949 30.0423 17.737C29.5927 17.5669 29.0883 17.4818 28.5293 17.4818C27.8488 17.4818 27.2412 17.6155 26.7064 17.8828C26.1717 18.1381 25.722 18.5512 25.3575 19.1224C24.9929 19.6936 24.7133 20.447 24.5189 21.3828C24.3366 22.3064 24.2454 23.4305 24.2454 24.7552V30.3699C24.2454 31.4392 24.3062 32.3811 24.4277 33.1953C24.5493 34.0095 24.7315 34.7083 24.9746 35.2917C25.2177 35.8629 25.5094 36.3368 25.8496 36.7135C26.202 37.0782 26.6031 37.3455 27.0527 37.5157C27.5145 37.6858 28.0189 37.7708 28.5658 37.7708C29.2584 37.7708 29.8722 37.6371 30.4069 37.3699C30.9416 37.1025 31.3913 36.6771 31.7558 36.0938C32.1205 35.4983 32.3939 34.7265 32.5762 33.7786C32.7584 32.8307 32.8497 31.6945 32.8497 30.3699Z" fill="#F7FCFF"/>
</svg>
