<svg width="56" height="56" viewBox="0 0 56 56" fill="none" xmlns="http://www.w3.org/2000/svg">
<path d="M36.9681 37.4062V40.9062H19.1764V37.8985L27.8171 28.474C28.7649 27.4045 29.5124 26.4809 30.0592 25.7032C30.606 24.9254 30.989 24.2265 31.2077 23.6068C31.4387 22.9748 31.5541 22.3612 31.5541 21.7656C31.5541 20.9271 31.396 20.1919 31.0801 19.5599C30.7763 18.9158 30.3266 18.4114 29.7311 18.0469C29.1357 17.6701 28.4126 17.4818 27.5618 17.4818C26.5774 17.4818 25.7511 17.6945 25.0827 18.1197C24.4143 18.5451 23.9099 19.1345 23.5696 19.888C23.2294 20.6293 23.0592 21.4801 23.0592 22.4401H18.666C18.666 20.8967 19.0185 19.4869 19.7232 18.211C20.4281 16.9227 21.449 15.9019 22.7857 15.1485C24.1226 14.3828 25.7329 14 27.6166 14C29.3908 14 30.8978 14.2977 32.1374 14.8932C33.377 15.4887 34.3187 16.3333 34.9629 17.4271C35.6191 18.5208 35.9473 19.8151 35.9473 21.3099C35.9473 22.1363 35.8137 22.9566 35.5463 23.7708C35.2788 24.585 34.8961 25.3993 34.3978 26.2135C33.9118 27.0157 33.3345 27.8238 32.666 28.638C31.9976 29.4401 31.2624 30.2543 30.4603 31.0807L24.7181 37.4062H36.9681Z" fill="#F7FCFF"/>
</svg>
